<?xml version="1.0" standalone="no"?>
<!DOCTYPE svg PUBLIC "-//W3C//DTD SVG 20010904//EN"
 "http://www.w3.org/TR/2001/REC-SVG-20010904/DTD/svg10.dtd">
<svg version="1.0" xmlns="http://www.w3.org/2000/svg"
 width="837.000000pt" height="305.000000pt" viewBox="0 0 837.000000 305.000000"
 preserveAspectRatio="xMidYMid meet">

<g transform="translate(0.000000,305.000000) scale(0.100000,-0.100000)"
fill="#000000" stroke="none">
<path d="M1060 2219 c-221 -29 -446 -197 -550 -414 -72 -149 -91 -278 -65
-441 34 -217 166 -415 350 -526 l54 -32 3 -116 3 -115 45 0 45 0 3 93 c1 50 6
92 10 92 4 -1 34 -7 67 -15 78 -19 244 -19 315 0 84 23 80 27 80 -80 l0 -95
45 0 45 0 0 115 0 114 71 46 c402 260 470 816 141 1152 -180 184 -397 256
-662 222z m305 -32 c129 -36 269 -120 353 -212 66 -72 127 -177 159 -271 24
-71 27 -93 27 -224 0 -131 -3 -153 -27 -224 -32 -94 -93 -199 -159 -271 -50
-55 -191 -159 -202 -148 -3 3 -6 93 -6 199 l0 193 31 17 c154 79 194 384 72
546 -108 141 -287 92 -345 -95 -31 -100 -33 -162 -10 -256 25 -96 73 -169 127
-195 l35 -17 0 -219 0 -219 -57 -18 c-75 -23 -295 -23 -363 -1 l-45 15 -3 231
-2 232 27 30 c15 17 48 44 74 60 26 16 54 39 61 52 9 16 14 85 16 241 4 231 0
251 -42 245 -16 -2 -22 -13 -28 -53 -30 -195 -61 -335 -74 -335 -20 0 -22 8
-34 160 -17 222 -19 230 -46 230 -12 0 -26 -4 -29 -10 -3 -5 -13 -83 -21 -172
-18 -194 -20 -208 -38 -208 -9 0 -19 30 -30 98 -52 300 -49 287 -76 287 l-25
0 -3 -233 c-1 -152 1 -240 8 -253 6 -11 33 -33 59 -49 26 -16 59 -43 74 -60
l27 -30 -2 -211 -3 -211 -56 39 c-158 107 -280 279 -315 442 -18 85 -18 257 1
343 31 149 161 337 297 431 67 46 204 103 279 116 70 13 250 6 314 -12z m175
-354 c71 -42 120 -156 120 -282 0 -111 -24 -183 -81 -245 l-47 -51 -67 0 -67
0 -49 53 c-56 61 -69 96 -76 210 -8 113 10 189 59 257 22 30 40 55 41 55 1 0
20 7 42 15 43 15 85 11 125 -12z m-627 -15 c3 -18 11 -104 18 -191 l13 -158
35 3 c41 4 40 0 70 185 30 175 31 183 42 183 12 0 12 -416 -1 -440 -5 -10 -29
-29 -52 -43 -24 -14 -54 -37 -67 -51 -32 -35 -108 -37 -137 -5 -10 12 -39 35
-64 52 -25 17 -50 38 -57 46 -9 12 -12 77 -13 229 0 285 11 282 60 -13 12 -71
25 -134 30 -138 4 -5 20 -7 36 -5 l29 3 17 175 c9 96 17 181 17 188 2 25 19
11 24 -20z"/>
<path d="M4576 1123 c-12 -12 -6 -33 9 -33 8 0 15 6 15 14 0 17 -14 28 -24 19z"/>
<path d="M5466 1123 c-12 -12 -6 -33 9 -33 8 0 15 6 15 14 0 17 -14 28 -24 19z"/>
<path d="M3400 1020 c0 -80 3 -100 14 -100 8 0 16 12 18 27 4 38 23 39 44 4
10 -17 27 -31 37 -31 16 0 15 4 -8 37 -30 46 -31 51 -3 80 34 36 0 28 -39 -9
l-33 -32 0 62 c0 48 -3 62 -15 62 -12 0 -15 -18 -15 -100z"/>
<path d="M4490 1020 c0 -82 3 -100 15 -100 12 0 15 18 15 100 0 82 -3 100 -15
100 -12 0 -15 -18 -15 -100z"/>
<path d="M4676 1104 c-9 -8 -16 -24 -16 -34 0 -10 -6 -21 -12 -23 -10 -4 -10
-6 0 -6 8 -1 12 -20 12 -61 0 -47 3 -60 15 -60 12 0 15 13 15 59 0 54 2 60 23
64 l22 4 -22 2 c-30 1 -32 41 -3 48 11 3 20 9 20 14 0 15 -37 10 -54 -7z"/>
<path d="M2520 1095 c0 -10 10 -15 30 -15 l30 0 0 -80 c0 -64 3 -80 15 -80 12
0 15 16 15 80 l0 80 35 0 c24 0 35 5 35 15 0 12 -16 15 -80 15 -64 0 -80 -3
-80 -15z"/>
<path d="M2702 1044 c-28 -20 -31 -83 -4 -107 30 -27 87 -22 111 9 27 35 26
59 -4 89 -28 29 -70 32 -103 9z m83 -24 c24 -26 13 -68 -20 -76 -32 -8 -55 11
-55 45 0 50 42 67 75 31z"/>
<path d="M2940 990 c0 -79 15 -94 23 -23 6 54 29 78 58 62 15 -7 19 -21 19
-59 0 -38 4 -50 15 -50 11 0 15 11 15 40 0 51 30 86 60 70 16 -8 20 -21 20
-60 0 -38 4 -50 15 -50 11 0 15 12 15 51 0 28 -5 59 -10 70 -13 23 -62 26 -80
4 -12 -14 -15 -14 -30 0 -20 18 -61 20 -79 3 -11 -10 -14 -10 -18 0 -12 32
-23 5 -23 -58z"/>
<path d="M3243 1053 c-25 -10 -12 -22 17 -17 29 6 60 -8 60 -27 0 -5 -17 -9
-39 -9 -44 0 -64 -18 -59 -52 3 -21 8 -23 66 -24 l62 -1 0 46 c0 61 -21 91
-63 90 -18 0 -38 -3 -44 -6z m77 -81 c0 -15 -24 -32 -46 -32 -21 0 -39 22 -27
34 9 9 73 7 73 -2z"/>
<path d="M3572 1044 c-29 -20 -31 -83 -3 -108 22 -20 92 -19 99 1 2 9 -5 11
-27 7 -30 -6 -61 8 -61 27 0 5 25 9 56 9 47 0 55 3 50 16 -3 9 -6 19 -6 24 0
18 -33 40 -58 40 -15 0 -38 -7 -50 -16z m76 -16 c21 -21 13 -28 -28 -28 -28 0
-40 4 -40 14 0 25 48 34 68 14z"/>
<path d="M3801 990 c32 -76 32 -100 0 -100 -26 0 -37 -18 -16 -26 35 -14 60
12 93 96 35 88 38 104 21 98 -7 -2 -19 -24 -28 -48 -9 -24 -20 -44 -25 -44 -4
-1 -16 19 -25 44 -9 25 -24 46 -33 48 -14 3 -11 -9 13 -68z"/>
<path d="M3950 1040 c-45 -45 -11 -120 55 -120 66 0 99 70 55 118 -27 29 -83
29 -110 2z m84 -16 c32 -31 14 -84 -29 -84 -27 0 -45 18 -45 46 0 25 24 54 45
54 7 0 21 -7 29 -16z"/>
<path d="M4120 1002 c0 -64 11 -82 50 -82 14 0 31 5 38 12 9 9 12 9 12 0 0 -7
7 -12 15 -12 12 0 15 14 15 70 0 56 -3 70 -15 70 -11 0 -15 -12 -15 -50 0 -38
-4 -52 -19 -60 -39 -20 -61 7 -61 78 0 17 -4 32 -10 32 -6 0 -10 -26 -10 -58z"/>
<path d="M4310 990 c0 -40 4 -70 10 -70 6 0 10 13 10 29 0 47 17 81 40 81 11
0 20 7 20 15 0 18 -21 20 -39 3 -11 -10 -14 -10 -18 0 -12 32 -23 5 -23 -58z"/>
<path d="M4570 990 c0 -56 3 -70 15 -70 12 0 15 14 15 70 0 56 -3 70 -15 70
-12 0 -15 -14 -15 -70z"/>
<path d="M4761 1034 c-26 -34 -27 -68 -1 -94 20 -20 63 -26 94 -14 29 11 16
23 -19 17 -34 -5 -65 8 -65 28 0 5 25 9 55 9 46 0 55 3 55 18 0 61 -80 85
-119 36z m89 -14 c10 -19 8 -20 -35 -20 -46 0 -54 7 -33 28 19 19 56 14 68 -8z"/>
<path d="M5000 1040 c-26 -26 -26 -81 -1 -104 22 -20 92 -19 99 1 2 9 -5 11
-27 7 -30 -6 -61 8 -61 27 0 5 25 9 55 9 32 0 55 4 55 11 0 15 -21 53 -34 61
-21 14 -66 8 -86 -12z m78 -12 c21 -21 13 -28 -28 -28 -22 0 -40 4 -40 8 0 14
23 32 40 32 9 0 21 -5 28 -12z"/>
<path d="M5173 1053 c-26 -10 -12 -22 21 -16 28 4 36 1 45 -16 11 -20 9 -21
-27 -21 -45 0 -65 -18 -60 -52 3 -21 8 -23 61 -24 l57 -1 0 57 c0 31 -5 61
-12 68 -12 12 -62 15 -85 5z m77 -81 c0 -15 -24 -32 -46 -32 -25 0 -39 14 -29
30 7 12 75 14 75 2z"/>
<path d="M5333 1052 c-11 -7 -17 -26 -14 -49 0 -6 17 -17 36 -23 20 -7 35 -18
35 -27 0 -12 -8 -15 -41 -10 -28 4 -39 2 -36 -6 5 -16 75 -21 93 -6 27 22 16
50 -26 66 -46 18 -48 37 -4 39 46 2 50 4 34 14 -18 11 -60 13 -77 2z"/>
<path d="M5460 990 c0 -56 3 -70 15 -70 12 0 15 14 15 70 0 56 -3 70 -15 70
-12 0 -15 -14 -15 -70z"/>
<path d="M5550 1040 c-43 -43 -14 -120 45 -120 18 0 40 3 49 6 26 10 7 24 -24
17 -29 -5 -60 9 -60 28 0 5 25 9 55 9 48 0 55 2 55 20 0 29 -36 60 -70 60 -17
0 -39 -9 -50 -20z m78 -12 c21 -21 13 -28 -28 -28 -22 0 -40 4 -40 8 0 14 23
32 40 32 9 0 21 -5 28 -12z"/>
<path d="M5710 990 c0 -54 3 -70 14 -70 11 0 16 14 18 48 2 38 7 49 26 57 12
5 22 15 22 22 0 18 -15 16 -34 -3 -15 -14 -16 -14 -16 0 0 9 -7 16 -15 16 -12
0 -15 -14 -15 -70z"/>
<path d="M5817 943 c-12 -11 -8 -23 8 -23 8 0 15 7 15 15 0 16 -12 20 -23 8z"/>
</g>
</svg>
